PathFileType	4	(X/Y/Z)	/Users/niels/Desktop/University/Third Semester/Perception and Action/Exam/Gymnastics Motion Tracking/Code for Gym Tracking/Analyzed Data/Webcam_Backflip/id9_1_baseline_Sports2D/id9_1_baseline_Sports2D_px_person00.trc
DataRate	CameraRate	NumFrames	NumMarkers	Units	OrigDataRate	OrigDataStartFrame	OrigNumFrames
29.702970297029704	29.702970297029704	9	22	m	29.702970297029704	88	101
Frame#	Time	Hip			RHip			RKnee			RAnkle			RBigToe			RSmallToe			RHeel			LHip			LKnee			LAnkle			LBigToe			LSmallToe			LHeel			Neck			Head			Nose			RShoulder			RElbow			RWrist			LShoulder			LElbow			LWrist		
		X1	Y1	Z1	X2	Y2	Z2	X3	Y3	Z3	X4	Y4	Z4	X5	Y5	Z5	X6	Y6	Z6	X7	Y7	Z7	X8	Y8	Z8	X9	Y9	Z9	X10	Y10	Z10	X11	Y11	Z11	X12	Y12	Z12	X13	Y13	Z13	X14	Y14	Z14	X15	Y15	Z15	X16	Y16	Z16	X17	Y17	Z17	X18	Y18	Z18	X19	Y19	Z19	X20	Y20	Z20	X21	Y21	Z21	X22	Y22	Z22
88	2.9626666666666663	1.228339384595538	-0.6427460551698065	0.0	1.2284652277724344	-0.6373888498952349	0.0	1.1996392417328974	-0.8737198666017624	0.0	1.0355929314780972	-1.022283736536561	0.0	1.075501494286296	-1.0817889959188798	0.0	1.0553094472430056	-1.0887606121085838	0.0	1.0018566449177355	-1.0341678418474562	0.0	1.2325049134451467	-0.6385589803179852	0.0	1.3614402548820568	-0.8242103825552238	0.0	1.4066244359088527	-1.0231659729310867	0.0	1.5079761428652636	-1.045896632481989	0.0	1.4925891796146844	-1.0403878338252472	0.0	1.3827344147318181	-1.0462781718432024	0.0	1.2243390933454967	-0.32877023723632476	0.0	1.2413039659463079	-0.20241467479314273	0.0	1.27232399402179	-0.2614297495496485	0.0	1.2478474443719183	-0.3571947643183927	0.0	1.4167064956228124	-0.32221055616578576	0.0	1.3594865887840764	-0.2175482485521409	0.0	1.1784873169745795	-0.36526638523118526	0.0	1.1722721581924604	-0.4788686249817048	0.0	1.2497480813345532	-0.46874882656806216	0.0
89	2.9963333333333333	1.2455539376755298	-0.6458957000513287	0.0	1.249055549953942	-0.6412162449578025	0.0	1.2322988884258812	-0.872305748081463	0.0	1.0715789282176382	-1.0183460415592218	0.0	1.1088750178666762	-1.079839199806842	0.0	1.0908948239813223	-1.0826524301049698	0.0	1.0387263138611966	-1.0294675655925631	0.0	1.2416615510859101	-0.6420129979779624	0.0	1.3799180350631466	-0.8250801204281146	0.0	1.4019147655795743	-1.0236512206218207	0.0	1.5009085894822665	-1.0508840473214314	0.0	1.4852157105574466	-1.0460917700749353	0.0	1.3601749794652838	-1.0455630610333384	0.0	1.2455600355686998	-0.3331973010072747	0.0	1.2658541043877276	-0.20946186532972522	0.0	1.2942292302012708	-0.266173842614793	0.0	1.2737697126696463	-0.3613847880334558	0.0	1.441907826477172	-0.32850962087645097	0.0	1.3784646491587207	-0.22812077127765124	0.0	1.1986255573366982	-0.36937887328999547	0.0	1.1857465341642037	-0.48811408773357706	0.0	1.2496387436788514	-0.46971828898248075	0.0
90	3.03	1.2619515851877512	-0.6482597184282031	0.0	1.2683838619525665	-0.6450738762233149	0.0	1.2700416872749691	-0.8687841856332593	0.0	1.1186436220844742	-1.0167458661378743	0.0	1.15777476159277	-1.0762311268638798	0.0	1.1418033545289157	-1.0771358817788133	0.0	1.0876294736115864	-1.0280672132938404	0.0	1.2491677051475445	-0.6457001033840507	0.0	1.3926558377678608	-0.8279782515993599	0.0	1.3893629401107774	-1.0235034017558569	0.0	1.4840356447357865	-1.0541679214387119	0.0	1.4682309608897568	-1.0502121582721509	0.0	1.324310276279351	-1.0442505047592732	0.0	1.2677089706440148	-0.33837421781864185	0.0	1.291753130268131	-0.2149369885970703	0.0	1.3178988957326703	-0.27207357289427453	0.0	1.300237822169796	-0.366872923919315	0.0	1.4677099767007942	-0.3370392960808499	0.0	1.400181901350977	-0.23898027216537046	0.0	1.2191525633697424	-0.3739846009317185	0.0	1.202505501380416	-0.49109281105656555	0.0	1.249285087727042	-0.4697137155073859	0.0
91	3.0636666666666663	1.2773034782506336	-0.6504092245789685	0.0	1.285540898308891	-0.6493405046702955	0.0	1.3077388414489406	-0.8645742322986121	0.0	1.1684522470728547	-1.0171207164944107	0.0	1.2125513735516644	-1.072200238742169	0.0	1.1980154804383176	-1.0728827942253831	0.0	1.1400147730697117	-1.0293102142611084	0.0	1.2579701809766577	-0.649985131142045	0.0	1.3998452602021145	-0.8323304405142836	0.0	1.3706446353319464	-1.02313695264182	0.0	1.4597277344905866	-1.0563885979454355	0.0	1.4440885493044524	-1.0530086512204253	0.0	1.2833152537473924	-1.0430109804885308	0.0	1.2903218840861306	-0.3441826863496787	0.0	1.3179795914849113	-0.2193584049648086	0.0	1.3424854499874224	-0.2792100877141839	0.0	1.326637448934757	-0.3735935662295797	0.0	1.4932820399466906	-0.34835389678682976	0.0	1.4245851680951152	-0.2504678381197652	0.0	1.2397356115140326	-0.37899437243116524	0.0	1.222774082767428	-0.4864558825444489	0.0	1.2489260006315361	-0.4693082925155572	0.0
92	3.0973333333333333	1.291212154424269	-0.6527121208428933	0.0	1.2999269654939896	-0.6539023971479656	0.0	1.3358513226673654	-0.8622681162815669	0.0	1.2038161481159755	-1.0184739673678405	0.0	1.2515533709308897	-1.0698609916984154	0.0	1.2378145660748858	-1.0706709334716227	0.0	1.1777475888283302	-1.0313368277604866	0.0	1.2694389194772622	-0.654733346273929	0.0	1.4045057498927924	-0.836117837953225	0.0	1.352101633088174	-1.0228456373488701	0.0	1.43626882986489	-1.0583433937990845	0.0	1.4211330722466489	-1.0549047764945179	0.0	1.254383030472428	-1.0425293225367476	0.0	1.3122766815721025	-0.35007960442291924	0.0	1.3431161393008042	-0.22337653269625163	0.0	1.366508943368976	-0.28731094056592144	0.0	1.3513661678056876	-0.38084257628643065	0.0	1.5171662696557533	-0.3625554325797108	0.0	1.4510966875129139	-0.26300931458255195	0.0	1.2597920515162027	-0.38404895733204714	0.0	1.245927548275908	-0.475562454594343	0.0	1.2486615608243945	-0.4688467899421745	0.0
93	3.131	1.3032709720010247	-0.6553620753951321	0.0	1.3112643793997094	-0.6584852238539898	0.0	1.345546777514188	-0.8645256403225829	0.0	1.2085025345015143	-1.0197160391486457	0.0	1.2537002904985874	-1.0710406019918322	0.0	1.240263172877355	-1.0710423377280984	0.0	1.1834609540396774	-1.0321213552208752	0.0	1.2836520041692934	-0.6596386664371691	0.0	1.4120768556045398	-0.8367234776872822	0.0	1.3442377910821912	-1.0227420877958215	0.0	1.4268915910821476	-1.060417448104214	0.0	1.4126075448980413	-1.0560910725342414	0.0	1.2540752886473463	-1.0433228142148125	0.0	1.3322913555834006	-0.35544152696680936	0.0	1.366004218263897	-0.2274608487887633	0.0	1.388484214577268	-0.2958482615081746	0.0	1.3726158731681546	-0.38767849821868977	0.0	1.5377248524456706	-0.3790532564358604	0.0	1.478433262481904	-0.27682567375542405	0.0	1.2784564272294836	-0.38860906072178153	0.0	1.2694598866261333	-0.4622952114749993	0.0	1.2485075429993537	-0.46848666084953217	0.0
94	3.1646666666666663	1.3134743470303032	-0.6584066722555183	0.0	1.3197879777040515	-0.6628787919008474	0.0	1.3370122971007765	-0.871588927698418	0.0	1.1828624764030566	-1.0203308542571996	0.0	1.218531313412184	-1.0756318371295541	0.0	1.205089147722269	-1.0736193710290278	0.0	1.1572222024870835	-1.0309292975655475	0.0	1.3000883789785331	-0.6644636385534253	0.0	1.42577277428212	-0.8335189139492324	0.0	1.3529810340881714	-1.0228584026326877	0.0	1.4386601304400564	-1.0624394257163323	0.0	1.4254161429177892	-1.0566381254056567	0.0	1.2826130063309802	-1.0454207615382625	0.0	1.3496436692538392	-0.35999610078924354	0.0	1.3862783820287172	-0.23178023768698494	0.0	1.4076194653436471	-0.30422930284373767	0.0	1.3894402450097618	-0.3935682477766397	0.0	1.5538227244148917	-0.39682221526756106	0.0	1.5052696694683285	-0.2918723894036315	0.0	1.2948856674258171	-0.3923464782457525	0.0	1.2895580810438037	-0.45199881104465567	0.0	1.2484406647812414	-0.46826554941750786	0.0
95	3.1983333333333333	1.3220749597057018	-0.6616795066991231	0.0	1.3261437065456376	-0.6668927010702553	0.0	1.319463067613019	-0.8808329588521798	0.0	1.1435851460797655	-1.0204677909571696	0.0	1.1665483246789723	-1.0816686270509241	0.0	1.1530472258773408	-1.0772041151780198	0.0	1.1163758536272892	-1.0285789277597843	0.0	1.3174476878584112	-0.6689618300972889	0.0	1.442981164394724	-0.8287770887352897	0.0	1.3728872469792615	-1.0232157621647486	0.0	1.4643051096660002	-1.0640275781059847	0.0	1.4519060831251989	-1.0567432269326267	0.0	1.323751594718579	-1.048273198571509	0.0	1.364280347960449	-0.3638732160175166	0.0	1.4041033960780973	-0.2363316919059117	0.0	1.4238815695972213	-0.3120367017059995	0.0	1.4020994532184403	-0.39856058835429836	0.0	1.5650964154040254	-0.4149625234669112	0.0	1.5308503076451274	-0.30814114353486205	0.0	1.3086456286939585	-0.3952345979088223	0.0	1.303292578148123	-0.44950817746658556	0.0	1.24842780304521	-0.46816148528004853	0.0
96	3.2319999999999998	1.3291603070382947	-0.6647691831779753	0.0	1.331022103668698	-0.6702835864246586	0.0	1.3025978524788142	-0.8891850951365067	0.0	1.107807819564561	-1.0205485561153687	0.0	1.119532871532036	-1.0869645990506311	0.0	1.1061264750823097	-1.0805646195997674	0.0	1.0788489484409167	-1.026429780779154	0.0	1.3332591626431314	-0.6727535684036052	0.0	1.4587134585106967	-0.825161142555606	0.0	1.393586161797986	-1.023886277090216	0.0	1.4906409091588466	-1.0648822717975355	0.0	1.4784976839306647	-1.0566526127784306	0.0	1.3605225458548533	-1.0512407223979	0.0	1.3765069200284366	-0.3673616990783254	0.0	1.4196095765187493	-0.24102398136560588	0.0	1.4376259564251315	-0.3190593280771605	0.0	1.411868922558428	-0.4030759516677863	0.0	1.5719116706288287	-0.43297610632653943	0.0	1.5548094353925845	-0.32581508882507737	0.0	1.319751333272361	-0.39740419975751257	0.0	1.3108466764911733	-0.45673217667213223	0.0	1.2484407097068795	-0.4681338170590069	0.0
